<svg xmlns="http://www.w3.org/2000/svg" width="427" height="379" fill="none"><path fill="#fff" d="M333.6 329.6q-22.4 17.6-53.6 28T217.6 368q-54.4 0-95.2-21.6t-64-60Q36 247.2 36 194.4t24-92q24.8-39.2 64-60 40-21.6 85.6-21.6 40 0 71.2 11.2 32 11.2 54.4 30.4l-36.8 48q-14.4-11.2-35.2-20T216 81.6q-28.8 0-53.6 15.2-24 14.4-38.4 40-13.6 25.6-13.6 57.6 0 30.4 14.4 56.8 14.4 25.6 40 40.8 25.6 14.4 58.4 14.4 21.6 0 39.2-6.4 18.4-6.4 32.8-17.6z"/><path fill="#fff" d="M300.432 171.528 224 114.687v43.063l76.432 59.982 49.376-40.757v86.686L387 314.733V113z"/><path fill="#a3c0ff" d="M296.624 220.03 224 275.194V163.03z"/></svg>